<svg xmlns="http://www.w3.org/2000/svg">
  <!-- Circuit symbol (Hardware) -->
  <symbol id="circuit-icon" viewBox="0 0 24 24">
    <path fill="none" stroke="currentColor" stroke-width="2" stroke-linecap="round" stroke-linejoin="round" d="M12 2v4M12 18v4M4 12H2m20 0h-2m-4-6l-2.8 2.8M6.8 17.2L4 20M17.2 17.2L20 20M6.8 6.8L4 4" />
    <circle cx="12" cy="12" r="4" fill="none" stroke="currentColor" stroke-width="2" />
  </symbol>
  <!-- Code symbol (Software) -->
  <symbol id="code-icon" viewBox="0 0 24 24">
    <path fill="none" stroke="currentColor" stroke-width="2" stroke-linecap="round" stroke-linejoin="round" d="M16 18l6-6-6-6M8 6L2 12l6 6M13 3l-2 18" />
  </symbol>
  <!-- Gear symbol (Mechanical / Product) -->
  <symbol id="gear-icon" viewBox="0 0 24 24">
    <circle cx="12" cy="12" r="3" fill="none" stroke="currentColor" stroke-width="2" />
    <path fill="none" stroke="currentColor" stroke-width="2" d="M19.4 15a1.65 1.65 0 0 0 .33 1.82l.06.06a2 2 0 1 1-2.83 2.83l-.06-.06a1.65 1.65 0 0 0-1.82-.33 1.65 1.65 0 0 0-1 1.51V21a2 2 0 0 1-4 0v-.09A1.65 1.65 0 0 0 9 19.4a1.65 1.65 0 0 0-1.82.33l-.06.06a2 2 0 1 1-2.83-2.83l.06-.06a1.65 1.65 0 0 0 .33-1.82 1.65 1.65 0 0 0-1.51-1H3a2 2 0 0 1 0-4h.09A1.65 1.65 0 0 0 4.6 9a1.65 1.65 0 0 0-.33-1.82l-.06-.06a2 2 0 1 1 2.83-2.83l.06.06a1.65 1.65 0 0 0 1.82.33H9a1.65 1.65 0 0 0 1-1.51V3a2 2 0 0 1 4 0v.09a1.65 1.65 0 0 0 1 1.51 1.65 1.65 0 0 0 1.82-.33l.06-.06a2 2 0 1 1 2.83 2.83l-.06.06a1.65 1.65 0 0 0-.33 1.82V9a1.65 1.65 0 0 0 1.51 1H21a2 2 0 0 1 0 4h-.09a1.65 1.65 0 0 0-1.51 1z" />
  </symbol>
  <!-- Beaker symbol (Lab Testing) -->
  <symbol id="lab-icon" viewBox="0 0 24 24">
    <path fill="none" stroke="currentColor" stroke-width="2" stroke-linecap="round" stroke-linejoin="round" d="M4.7 22h14.6M12 2v14M12 2h4M8 2h8M6.5 7.5h11M6.5 12h11M6.5 16.5h11" />
  </symbol>
</svg>
